<?xml version="1.0" standalone="no"?>
<svg version="1.0" xmlns="http://www.w3.org/2000/svg"
 width="108" height="108" viewBox="0 0 407 383"
 preserveAspectRatio="xMidYMid meet">
<g transform="translate(50.875000,335.125000) scale(0.075000,-0.075000)"
fill="#3B8AE0" stroke="none">
<path d="M2260 3330 c222 -58 429 -200 549 -379 74 -108 119 -219 166 -404 65
-258 141 -438 265 -626 87 -133 159 -222 264 -326 50 -49 99 -101 108 -115 30
-42 23 -97 -25 -191 -182 -354 -425 -603 -751 -766 -190 -95 -401 -151 -461
-122 -38 18 -75 74 -75 113 0 35 30 90 57 105 10 5 60 19 111 31 230 54 412
154 590 324 88 85 199 225 251 317 l31 57 -87 16 c-301 55 -583 -32 -998 -309
-299 -199 -536 -307 -794 -362 -110 -24 -149 -27 -301 -27 -157 0 -185 3 -273
27 -157 42 -393 153 -460 215 -31 29 -47 77 -40 116 4 17 49 71 122 144 316
319 479 690 536 1217 21 192 46 298 100 411 60 129 109 197 212 294 137 130
291 211 473 251 116 26 310 21 430 -11z M1875 3095 c-253 -56 -449 -227 -529
-463 -25 -74 -35 -130 -61 -347 -53 -448 -219 -849 -480 -1162 -42 -50 -75
-95 -74 -100 4 -14 132 -64 228 -89 361 -93 675 101 863 531 51 116 98 267
173 555 76 294 101 373 155 485 74 155 188 296 320 397 l35 27 -24 18 c-180
137 -406 192 -606 148z M2588 2685 c-65 -47 -149 -153 -197 -244 -57 -110 -94
-224 -162 -494 -99 -396 -161 -567 -277 -767 l-27 -45 49 29 c27 16 124 78
215 138 328 217 592 315 857 320 l104 1 -28 36 c-63 82 -156 232 -211 340 -84
167 -127 283 -176 476 -47 189 -68 245 -87 245 -7 0 -34 -16 -60 -35z"/>
</g>
</svg>
